<svg width="16" height="17" viewBox="0 0 16 17" fill="none" xmlns="http://www.w3.org/2000/svg">
<path d="M8.47333 10.86L12.24 7.08666C12.3025 7.02469 12.3521 6.95096 12.3859 6.86972C12.4198 6.78848 12.4372 6.70134 12.4372 6.61333C12.4372 6.52532 12.4198 6.43819 12.3859 6.35695C12.3521 6.27571 12.3025 6.20197 12.24 6.14C12.1151 6.01583 11.9461 5.94614 11.77 5.94614C11.5939 5.94614 11.4249 6.01583 11.3 6.14L7.96666 9.44L4.66666 6.14C4.54176 6.01583 4.37279 5.94614 4.19666 5.94614C4.02054 5.94614 3.85157 6.01583 3.72666 6.14C3.66367 6.20174 3.61356 6.27537 3.57923 6.35662C3.5449 6.43787 3.52703 6.52513 3.52666 6.61333C3.52703 6.70154 3.5449 6.78879 3.57923 6.87004C3.61356 6.95129 3.66367 7.02492 3.72666 7.08666L7.49333 10.86C7.55576 10.9277 7.63153 10.9817 7.71586 11.0186C7.80019 11.0555 7.89126 11.0746 7.98333 11.0746C8.0754 11.0746 8.16647 11.0555 8.2508 11.0186C8.33513 10.9817 8.4109 10.9277 8.47333 10.86Z" fill="#065799"/>
</svg>
