<svg width="16" height="17" viewBox="0 0 16 17" fill="none" xmlns="http://www.w3.org/2000/svg">
<path d="M12.6667 3.16667H3.33334C2.80291 3.16667 2.2942 3.37739 1.91913 3.75246C1.54406 4.12753 1.33334 4.63624 1.33334 5.16667V11.8333C1.33334 12.3638 1.54406 12.8725 1.91913 13.2476C2.2942 13.6226 2.80291 13.8333 3.33334 13.8333H12.6667C13.1971 13.8333 13.7058 13.6226 14.0809 13.2476C14.456 12.8725 14.6667 12.3638 14.6667 11.8333V5.16667C14.6667 4.63624 14.456 4.12753 14.0809 3.75246C13.7058 3.37739 13.1971 3.16667 12.6667 3.16667ZM12.3933 4.50001L8.47334 8.42001C8.41137 8.48249 8.33763 8.53209 8.25639 8.56593C8.17515 8.59978 8.08802 8.6172 8.00001 8.6172C7.912 8.6172 7.82486 8.59978 7.74363 8.56593C7.66239 8.53209 7.58865 8.48249 7.52668 8.42001L3.60668 4.50001H12.3933ZM13.3333 11.8333C13.3333 12.0101 13.2631 12.1797 13.1381 12.3047C13.0131 12.4298 12.8435 12.5 12.6667 12.5H3.33334C3.15653 12.5 2.98696 12.4298 2.86194 12.3047C2.73691 12.1797 2.66668 12.0101 2.66668 11.8333V5.44001L6.58668 9.36001C6.96168 9.73454 7.47001 9.94491 8.00001 9.94491C8.53001 9.94491 9.03834 9.73454 9.41334 9.36001L13.3333 5.44001V11.8333Z" fill="#008FC3"/>
</svg>
