<svg width="70" height="72" viewBox="0 0 70 72" fill="none" xmlns="http://www.w3.org/2000/svg">
<g clip-path="url(#clip0_19_190)">
<path fill-rule="evenodd" clip-rule="evenodd" d="M22.1147 25.0485H25.7257C25.7257 26.1021 25.5912 28.5009 25.9724 29.2408C26.107 29.5098 26.4883 29.9133 26.8247 29.9133C32.6786 29.9133 31.9609 30.6307 31.9609 25.0485H36.8279C36.8279 30.6307 36.1102 29.9133 41.9641 29.9133C43.5117 29.9133 43.0631 26.3936 43.0631 25.0485H47.9301V31.1464H22.1147V25.0485ZM22.5857 0.5H23.3931C25.322 0.589675 27.2733 1.19498 29.3816 2.24866C34.2038 4.66988 35.9308 4.64746 40.753 2.20382C42.8164 1.15014 44.8126 0.544837 46.7639 0.5H47.347C49.4104 0.567256 51.4515 1.23982 53.47 2.71945C55.7578 4.35601 57.7539 7.13593 58.8305 9.69166C60.1538 12.763 60.5799 14.4444 61.0734 17.8521L61.2304 20.0491H68.3178C69.5514 20.0491 69.9776 20.7441 69.9776 21.9995C69.9776 27.4921 70.3364 27.4024 67.331 27.4024C59.8847 27.4024 61.1407 26.8644 60.9612 29.6219C60.6248 34.6437 56.5428 71.5 46.5171 71.5C44.0051 71.5 42.9061 67.0835 42.4575 65.021C41.2688 59.4387 39.6988 48.3863 37.5457 43.8577C37.0298 42.7592 35.6392 40.5398 34.1814 41.8401C34.1589 41.8625 34.1365 41.8849 34.1141 41.9073C34.0916 41.9297 34.0692 41.9522 34.0468 41.9746C33.8225 42.1988 33.7104 42.4005 33.5309 42.692C30.3685 48.05 29.3592 62.4428 26.2864 69.1684C25.8379 70.1549 24.8734 71.5 23.4829 71.5C18.2345 71.5 15.7225 62.667 14.3768 58.6989C13.9955 57.5556 13.7712 56.5467 13.4348 55.3361C11.7302 49.2831 10.1378 39.9345 9.44249 33.5227C8.67991 26.4833 9.59949 27.4024 6.97533 27.4024C6.12304 27.4024 1.16629 27.5818 0.628006 27.2231C0.246718 26.9765 0.0224306 26.3263 0.0224306 25.7434C0.0224306 22.6272 -0.538287 20.0491 1.68215 20.0491H8.76963C8.76963 13.8391 11.7526 6.08225 16.53 2.71945C18.6158 1.28465 20.5896 0.589675 22.5857 0.5ZM46.8311 69.0115C45.2836 69.0115 43.0631 54.3945 42.6594 52.3769C42.1884 50.0677 41.3585 46.3238 40.4838 44.1716C39.654 42.1315 37.9494 38.9256 35.3252 38.9256C33.5982 38.9256 32.6338 39.643 31.6693 41.0778C29.7405 43.9026 28.5517 49.3727 27.8565 52.8028C27.049 56.7037 26.107 61.703 25.0753 65.4245C24.8959 66.0971 23.9987 69.0339 23.4156 69.0339C21.1503 69.0339 18.7055 62.9361 18.0103 61.1201C15.588 54.955 13.7039 46.3686 12.7619 39.5982C12.3358 36.8183 11.4386 30.0254 11.4386 27.4024H19.7597V32.4018C19.7597 33.0744 20.2083 33.5003 20.8587 33.5003H49.1637C49.8366 33.5003 50.2627 33.0519 50.2627 32.4018V27.4024H58.5838C58.5838 32.2673 56.2288 46.279 55.1522 50.5834C53.9859 55.2016 53.0888 59.1697 51.272 63.362C51.0702 63.8104 50.9356 64.0346 50.7337 64.4829C50.3076 65.5366 49.545 66.7024 48.8497 67.5991C48.4684 68.1372 47.6834 69.0115 46.8311 69.0115ZM39.34 20.1836H40.439V27.4024H39.34V20.1836ZM28.3723 20.1836H29.4713V27.4024H28.3723V20.1836ZM50.2852 22.9635V22.5376H67.488V25.026H50.6889C50.016 25.026 50.3525 24.2638 50.3525 23.7706C50.3749 23.4119 50.2852 23.5016 50.2852 22.9635ZM19.7597 24.488C19.7597 24.8467 19.7597 25.0485 19.3335 25.0485H11.0349C10.4966 25.0485 10.4069 24.9588 10.0705 24.9588C9.73406 24.9588 9.64435 25.0485 9.10606 25.0485H2.55687V22.56H19.7597L19.67 23.6809C19.67 24.0396 19.7597 23.9724 19.7597 24.488ZM25.7257 19.5111V22.56H22.1147V16.4397H47.9301V22.5376H43.0631C43.0631 17.0226 43.4893 17.5382 38.4877 17.5382C36.2897 17.5382 36.8279 19.4214 36.8279 22.5376H31.9609C31.9609 17.1123 32.6338 17.5382 27.6546 17.5382C26.2416 17.5606 25.7257 18.0538 25.7257 19.5111ZM19.7597 14.9152V20.0491H11.3041C11.3041 13.8615 15.3412 2.98847 23.3707 2.98847C25.5912 2.98847 28.8657 4.87164 31.3105 5.85807C33.7104 6.82207 36.2224 6.86691 38.6222 5.9029C43.7808 3.81797 46.7863 1.03805 52.214 4.91648C53.4476 5.79081 54.7485 7.44979 55.5559 8.79492C57.3054 11.7093 58.7632 16.5069 58.7632 20.0491H50.3076V14.9152C50.3076 14.4668 49.5899 13.9512 49.0516 13.9512H21.0157C20.4774 13.9512 19.7597 14.4893 19.7597 14.9152Z" fill="#008FC3"/>
</g>
<defs>
<clipPath id="clip0_19_190">
<rect width="70" height="71" fill="white" transform="translate(0 0.5)"/>
</clipPath>
</defs>
</svg>
