<svg width="70" height="58" viewBox="0 0 70 58" fill="none" xmlns="http://www.w3.org/2000/svg">
<g clip-path="url(#clip0_19_197)">
<path fill-rule="evenodd" clip-rule="evenodd" d="M9.20697 34.6894H15.9488V38.1563H18.25V34.6894H25.1176V41.481H27.5446V34.6894H34.2864V41.481H36.7135V34.6894H43.4553V41.481H45.8823V34.6894H52.7679V38.1563H55.0512V34.6894H61.7929C61.6851 35.0805 61.1997 35.6139 60.894 35.9161C58.6108 38.2274 57.9456 39.0808 54.8534 41.1254C51.887 43.0811 48.9386 44.2901 45.343 45.1791C40.6866 46.317 30.3672 46.317 25.7109 45.1791C20.1556 43.8101 15.2836 41.161 11.2924 37.1785C10.6812 36.6095 9.60248 35.4361 9.20697 34.6894ZM3.68768 23.3641H67.3302C67.2943 24.9286 65.5684 28.7156 64.8133 30.209C64.5256 30.7957 63.8245 31.7914 63.6807 32.2892H55.0512V26.6888H52.7679V32.2892H45.9003V26.6888H43.4733V32.2892H36.7315V26.6888H34.3044V32.2892H27.5626V26.6888H25.1356V32.2892H18.25V26.6888H15.9488V32.2892H7.31926C7.19342 31.7914 6.51025 30.8135 6.24058 30.2979C5.44954 28.7156 3.74162 25.0709 3.68768 23.3641ZM0.990967 21.8884C0.990967 24.7864 3.36408 29.889 4.62255 32.2892C5.82708 34.6005 7.46309 36.4851 9.17101 38.3163C9.51259 38.6897 9.58451 38.903 9.98002 39.2586C10.3935 39.6142 10.5913 39.7031 10.9868 40.1298C12.3172 41.4632 15.3015 43.4723 17.1173 44.4679C20.9107 46.5659 26.7176 48.2904 31.1762 48.2904C37.145 48.2904 40.2012 48.6638 45.9722 47.4548C50.3948 46.5303 56.8669 43.2767 59.9232 40.1831C60.3008 39.792 60.4266 39.7031 60.8581 39.3653L63.357 36.6451C65.9998 33.4448 68.3909 29.0178 69.4157 25.0353C69.6853 23.9863 70.8539 20.9639 68.8044 20.9639H2.1955C1.65616 20.9639 0.990967 21.4083 0.990967 21.8884Z" fill="#008FC3"/>
<path fill-rule="evenodd" clip-rule="evenodd" d="M3.41801 39.6318C3.63375 40.5564 5.05402 42.5832 5.62932 43.4544L9.78227 48.4147C11.4722 50.086 14.7802 52.3084 16.8836 53.5174C17.5668 53.9085 18.196 54.1574 18.9511 54.5308C24.2726 57.1799 30.2773 57.4999 36.5697 57.4999C41.19 57.4999 46.0261 56.9487 49.7476 55.4553C50.5027 55.153 51.2758 54.8864 51.9409 54.5663C54.9613 53.0907 56.7771 52.1839 59.4558 49.8726L61.1457 48.4681C61.4873 48.1658 61.5053 48.0058 61.8109 47.668C62.6379 46.7968 63.1773 46.3701 64.0043 45.3034C64.9032 44.1122 67.2763 40.9475 67.5819 39.6496L65.4245 38.7251C65.1189 39.8807 63.1413 42.5298 62.3143 43.6321C61.9548 44.1122 61.5053 44.6456 61.0918 45.09C60.7862 45.4101 60.7502 45.5167 60.4805 45.819C59.5457 46.868 58.0355 48.0236 56.9029 48.9481C56.3456 49.4104 55.8602 49.6948 55.2489 50.1038C47.4824 55.2242 41.8013 55.1175 32.5426 55.1175C25.7109 55.1175 19.9938 52.8773 15.8589 50.1571C14.7442 49.4282 13.7914 48.717 12.7666 47.8814C11.1846 46.5479 11.2385 46.4768 9.998 45.1612C8.82943 43.9166 5.97091 40.1652 5.57539 38.7251L3.41801 39.6318Z" fill="#008FC3"/>
<path fill-rule="evenodd" clip-rule="evenodd" d="M1.92583 16.4302C1.92583 17.1236 2.1955 18.0836 2.32135 18.6881C3.02249 18.6703 7.64287 17.568 8.77549 17.3369L24.9558 13.87C29.3425 12.981 27.3289 12.4832 31.7335 15.9857C32.219 16.3768 34.8078 18.6703 35.2213 18.6703H35.7606C36.264 18.6703 42.5024 13.2121 42.6283 13.2121C43.4373 13.2121 47.9858 14.3144 49.1004 14.5278C51.3117 14.9723 53.3972 15.4879 55.6444 15.9324C56.9568 16.1813 67.8695 18.6526 68.6426 18.6703C68.7864 18.0659 69.0381 17.088 69.0381 16.4124C61.5952 14.7056 53.4331 13.0699 45.7924 11.3987C41.5855 10.4919 42.6283 9.99411 38.8708 13.2299L35.5089 16.0212C34.3044 15.2212 29.3065 10.6875 28.7672 10.6875L25.4052 11.3631C24.3086 11.5942 23.2659 11.8076 22.0793 12.0743C15.4633 13.5322 8.39795 14.9367 1.92583 16.4302Z" fill="#008FC3"/>
<path fill-rule="evenodd" clip-rule="evenodd" d="M6.65407 4.69599L8.30806 6.26055C6.9597 7.22063 7.3732 7.29175 6.65407 7.754C6.09675 6.91838 6.00686 6.84727 5.17987 6.29611C5.55741 5.7094 5.98888 5.69162 6.65407 4.69599ZM0.990967 6.15388C0.990967 8.1807 4.28096 6.72281 5.41358 10.332C5.71921 11.2921 5.70123 11.8965 6.7979 11.8965C8.59571 11.8965 7.33724 8.66074 10.8969 7.54065C12.1734 7.13173 12.461 7.29175 12.461 5.88719C12.461 4.96268 10.9149 5.10491 9.81822 4.35818C7.35522 2.7225 8.5238 0.482326 6.63609 0.500105C5.2338 0.517884 5.93495 2.13579 4.40681 3.78925C2.95058 5.35382 0.990967 4.66043 0.990967 6.15388Z" fill="#008FC3"/>
</g>
<defs>
<clipPath id="clip0_19_197">
<rect width="69" height="57" fill="white" transform="translate(0.990967 0.5)"/>
</clipPath>
</defs>
</svg>
