<svg width="76" height="72" viewBox="0 0 76 72" fill="none" xmlns="http://www.w3.org/2000/svg">
<g clip-path="url(#clip0_19_202)">
<path fill-rule="evenodd" clip-rule="evenodd" d="M11.6523 67.0646H40.5V69.3872H8.27344C8.625 68.7291 8.58594 68.6904 9.17188 68.0904L9.46484 67.8001C10.0117 67.3356 10.6758 67.0646 11.6523 67.0646ZM75.5195 48.1743V49.5291C75.4023 50.5162 75.0117 51.4065 74.543 52.0065C72.0039 55.0452 69.0547 53.613 65.9883 52.8581C64.582 52.5098 63.332 52.142 61.9453 51.7743L49.5625 48.5227C48.7812 48.3678 41.7109 49.2388 40.2656 49.3549C36.8867 49.6259 37.707 49.5291 36.8867 51.0775L41.9258 52.0452C48.293 53.4968 55.2266 54.9291 61.4961 56.4581C62.2969 56.6517 63.2539 56.8065 64.0156 57.0194C67.5703 58.0452 70.5781 61.1807 70.5781 65.1678V70.6839C70.5781 71.5743 69.875 71.9807 68.9766 71.9807H7.10156C4.34766 71.9807 5.5 68.1291 7.51172 66.1356C8.56641 65.071 10.0312 64.4323 12.082 64.4323H40.5V60.5227C39.5625 60.5227 33.7617 59.2839 32.3359 59.013C31.5352 58.8775 27.8633 60.9678 25.2461 57.4839C23.7227 55.471 24.25 52.5678 24.25 49.6259C23.4492 49.4323 21.5352 47.8646 20.832 47.2065L17.8438 44.5162C17.2969 43.9549 16.8672 43.6839 16.3008 43.142C15.9492 42.7936 15.8516 42.7743 15.5 42.4839L9.42578 37.0452C9.07422 36.6968 8.97656 36.6775 8.625 36.3872C8.33203 36.1356 8.17578 35.9227 7.88281 35.671L6.33984 34.2968C6.00781 34.0259 5.92969 34.0259 5.61719 33.7162C2.60938 30.8323 0.539062 30.213 0.539062 26.5743C0.539062 24.6388 2.60937 22.3743 5.07031 22.3743C7.12109 22.3743 7.82422 22.8001 9.21094 24.0775L22.9805 36.1162C23.7812 36.8517 28.1562 40.8001 28.5078 40.8001L38.5078 39.6775C40.2266 39.4646 41.9258 39.2904 43.4883 39.0968C50.4219 38.2452 49.8164 38.5356 56.6328 40.2194L71.1641 43.8194C74.0938 44.5356 75.2852 46.3743 75.5195 48.1743ZM45.4805 67.0646H68.0391V69.3872H43V55.0259C43.7422 55.0259 44.0938 55.2001 44.7188 55.3549L53.4492 57.2904C55.7344 57.813 63.8594 59.342 65.3438 60.4452C65.5977 60.6388 65.6562 60.7162 65.8906 60.9291C67.7656 62.613 67.5312 63.7162 67.9023 64.4517H45.4805V67.0646ZM35.6758 53.4194L39.4453 54.1743C40.7734 54.4065 40.5 53.8259 40.5 57.9098L34.0547 56.7485L35.6758 53.4194ZM29.3672 57.0388C27.4922 57.0388 26.7305 55.3162 26.7305 53.4194V50.5162C29.25 50.5162 32.043 50.4968 34.4844 49.9356C34.4062 50.2839 31.8281 56.071 30.6172 56.6904C30.3828 56.8065 29.6797 57.0388 29.3672 57.0388ZM27.9023 43.3936C29.1914 43.3936 45.8516 41.4775 48.1758 41.1291C49.6211 40.9162 52.9609 41.942 54.3477 42.2904C58.3906 43.2968 62.3555 44.2646 66.3008 45.2517C67.4922 45.542 71.418 46.3549 72.1016 46.9162C72.8047 47.4968 73.1367 48.5807 72.8633 49.6259C72.5898 50.6904 71.5156 51.3678 70.8125 51.3678C70.207 51.3678 68.8398 50.9614 68.293 50.8259L50.7148 46.2001C48.7422 45.6194 47.707 46.0452 45.1875 46.2775C43.1953 46.471 41.3008 46.7033 39.3477 46.8775C37.4531 47.0323 35.5781 47.2839 33.6445 47.4581C30.1094 47.7872 26.5547 48.9678 23.7812 46.3162L14.0352 37.6839C12.3164 36.0388 8.95703 33.3872 7.21875 31.6646C6.86719 31.3162 6.76953 31.2968 6.41797 31.0065C6.125 30.7549 5.96875 30.542 5.67578 30.2904C4.79688 29.4581 3.11719 28.5291 3.03906 27.1162C2.96094 25.742 4.46484 24.4452 6.16406 25.0259C6.71094 25.2194 10.1289 28.1807 10.8125 28.8388L13.1562 30.871C15.5781 33.1936 19.5625 36.3872 22.2383 38.8646C22.5703 39.1743 22.707 39.1936 23.0391 39.5227C23.5859 40.0259 24.0547 40.3936 24.582 40.8968C24.9336 41.2452 25.0312 41.2646 25.3828 41.5549C25.6953 41.8065 25.832 42.0194 26.1445 42.2517C26.9453 42.9098 27.1992 43.3936 27.9023 43.3936Z" fill="#008FC3"/>
<path fill-rule="evenodd" clip-rule="evenodd" d="M55.5977 21.1935C55.5977 20.071 55.9688 19.1613 56.6914 18.5032C57.2969 17.9419 58.1953 17.5161 59.1523 17.4581C60.9688 17.3419 62.9219 18.9677 62.9219 20.7484V21.4645C62.9219 25.7226 55.5977 26.071 55.5977 21.1935ZM75.5195 3.89032V4.49032C75.4609 5.32258 75.1484 6.13548 74.6016 6.77419C73.2344 8.38064 70.3828 8.86452 67.8828 9.69677C59.8945 12.329 60.5781 11.3226 60.5781 15.0774C61.2031 15.1355 61.8281 15.4258 62.3164 15.6774C63.5273 16.3355 63 16.4516 63.8008 16.529C64.1523 15.2516 65.9883 14.9419 67.1602 14.9419C68.8398 14.9419 70.5195 16.7419 70.5195 18.4258V22.6452C70.5195 24.4839 68.6445 26.129 66.7109 26.129V23.5161C68.3906 23.4774 68.0195 21.329 68.0195 19.4516C68.0195 16.8774 66.1055 17.2645 65.6758 18.1355C65.2852 18.929 65.793 20.6516 65.2852 22.8194C64.3477 26.7484 59.1719 28.7419 55.7344 26.2645C52.6484 24.0581 53.0781 21.7161 52.9609 18.8516C52.8828 16.9161 50.6172 17.1677 50.6172 18.5613C50.6172 20.3806 50.3047 22.6839 51.0078 23.2645C51.3594 23.5548 51.2227 23.4968 51.7891 23.4968V26.129C49.6797 26.129 47.9805 24.4452 47.9805 22.3548V18.7161C47.9805 16.6839 49.582 14.9419 51.6328 14.9419C53.8594 14.9419 54.0742 15.929 54.9922 16.529C55.793 15.9871 56.6719 15.1742 57.9219 15.0774C57.9219 12.9097 57.8242 10.8387 59.875 9.75484C60.7344 9.29032 69.6797 6.42581 70.793 6.05806C71.6719 5.76774 72.668 5.53548 72.9023 4.52903C73.0977 3.67742 72.4727 2.59355 71.3984 2.59355H44.3086C43.2734 2.59355 43 3.44516 43 4.47097V28.5677H40.5195V3.48387C40.5195 1.56774 42.375 0 44.7578 0H70.9688C73.8398 0 75.3633 1.91613 75.5195 3.89032Z" fill="#008FC3"/>
<path fill-rule="evenodd" clip-rule="evenodd" d="M30.5391 27.1355V28.5871H33.0195C33.0195 27.7935 32.9219 26.129 34.1914 26.129C35.9688 26.129 35.5 28.8968 35.5 31.0645H25.4024C25.0313 31.0645 24.8555 31.1419 24.6406 31.3355C23.9766 31.9161 24.2305 33.4645 24.2305 34.8387H26.7109V33.5419H44.1328C44.1328 38.1097 43.4492 37.3161 46.7695 37.3161V32.3806C46.7695 31.7806 46.2813 31.0839 45.7539 31.0839H38.0195V27.0194C38.0195 25.1613 36.0859 23.5355 34.2305 23.5936C32.2969 23.6129 30.5391 25.0645 30.5391 27.1355Z" fill="#008FC3"/>
<path fill-rule="evenodd" clip-rule="evenodd" d="M57.9414 22.3549H60.5781V19.8774H57.9414V22.3549Z" fill="#008FC3"/>
<path fill-rule="evenodd" clip-rule="evenodd" d="M27.9023 54.5807H30.5391V52.1033H27.9023V54.5807Z" fill="#008FC3"/>
</g>
<defs>
<clipPath id="clip0_19_202">
<rect width="75" height="72" fill="white" transform="translate(0.519531)"/>
</clipPath>
</defs>
</svg>
