<svg width="80" height="64" viewBox="0 0 80 64" fill="none" xmlns="http://www.w3.org/2000/svg">
<g clip-path="url(#clip0_19_208)">
<path fill-rule="evenodd" clip-rule="evenodd" d="M33.4129 55.5894C31.9863 55.5894 31.7382 55.0593 31.4901 53.367L30.291 42.6835C30.1669 41.6641 30.0015 40.3185 29.8775 39.2787C29.7328 38.0146 29.6707 36.9544 29.464 35.7311C28.8437 32.2243 24.688 31.103 22.331 33.2437C20.6563 34.7729 20.8631 36.8933 20.553 39.2583C20.3049 41.236 19.0437 54.1214 18.6095 54.8554C18.2373 55.467 17.7411 55.5894 17.0382 55.5894C15.4462 55.5894 15.4462 53.8768 15.1774 52.5515L11.9934 35.7719C11.4559 34.1204 8.10647 31.2661 8.10647 23.4777C8.10647 19.7467 11.2284 16.6272 15.5082 16.6272C18.7335 16.6272 22.8066 20.7253 30.353 18.0136C33.1855 16.9942 34.7362 15.8321 38.2923 17.3001C40.7526 18.3195 42.3653 21.0923 42.3653 23.9263C42.3653 26.4544 41.9518 28.1059 41.2282 30.267C40.4218 32.6729 39.6362 33.5292 38.6644 35.3437C38.2716 36.0777 35.7079 50.0234 35.3151 52.2661C35.067 53.6729 35.0049 55.5894 33.4129 55.5894ZM5.33599 23.335C5.33599 26.0874 5.89422 29.8389 7.03136 32.1632C4.09548 32.1632 3.18577 33.0602 1.26298 34.5282C0.72542 34.936 0.105164 35.2622 0.105164 36.1185V62.2768C0.105164 63.0107 0.601369 63.5001 1.34568 63.5001H49.1881C50.0565 63.5001 50.4286 62.6845 50.4286 62.4399V38.8505C48.6092 38.8505 47.6582 38.5855 47.6582 39.2991V60.9107H2.71024V37.0156C2.71024 36.6282 2.54484 36.9136 3.35117 36.2816C4.48831 35.3845 5.00519 34.8748 6.55583 34.8748C9.63644 34.8748 9.63644 37.9942 9.98792 39.8496L12.655 53.9583C13.0065 55.6913 13.6061 57.1389 15.1774 57.8525C17.9892 59.1369 20.9665 57.6078 21.5454 54.5496C21.7108 53.6933 21.8555 52.0826 21.9382 51.1447C22.0622 49.9214 22.1449 48.8204 22.331 47.5768C22.6618 45.1913 22.7859 42.9894 23.1167 40.6039C23.2614 39.5641 23.4888 36.0777 23.861 35.5476C24.2331 34.9971 26.5281 33.8146 26.8796 37.036L28.4509 51.1651C28.5336 52.0826 28.699 53.9379 28.8644 54.7127C29.8775 58.9738 35.067 59.4835 37.0518 56.1602C37.6514 55.1612 37.9615 52.9593 38.2096 51.5117L40.9387 37.1583C41.0834 36.3632 41.3936 36.0166 41.8691 35.201C42.2413 34.569 42.5307 34.0389 42.8822 33.3253C44.0193 31.0826 45.0944 27.2496 45.0944 23.9467C45.0944 20.7457 43.8539 18.5641 42.2413 16.8719C40.5252 15.0573 37.7134 13.9156 35.067 13.9156C30.6425 13.9156 27.2931 18.1971 19.9947 15.0981C16.4179 13.5282 13.0272 13.2835 9.59509 15.6486C9.22293 15.8933 9.20226 15.9544 8.91281 16.1787C8.64403 16.3826 8.47863 16.4845 8.23053 16.7292C7.94107 17.0146 7.96175 17.035 7.73432 17.3204C7.15541 18.0544 6.70056 18.5437 6.26638 19.5428C5.85287 20.5214 5.33599 21.9894 5.33599 23.335Z" fill="#008FC3"/>
<path fill-rule="evenodd" clip-rule="evenodd" d="M61.6553 16.4845L63.6194 14.4661L68.2507 19.1146L54.3569 32.8972L49.581 28.2282L51.5865 26.3321C52.4341 26.5768 52.827 27.4535 53.4679 27.8816L55.3493 26.0874L53.5713 24.2525L55.5768 22.3564L57.2721 23.9467C57.8304 23.7836 57.9751 23.4777 58.3472 23.1107C58.7194 22.7438 59.0089 22.601 59.1536 22.0913L57.5823 20.4603L59.5051 18.4826L61.2831 20.1544L63.2059 18.3399C62.9371 17.9525 62.689 17.7486 62.3582 17.4224C61.4899 16.5661 61.8827 16.8923 61.6553 16.4845ZM79.0845 12.9777V13.0593L77.203 14.8535L75.5077 13.2632L70.8764 17.9117L75.1148 22.1729L73.192 24.0078L70.1321 21.0719C69.6359 21.8059 60.0426 31.103 58.5126 32.5913C57.7683 33.3253 55.308 36.1389 54.3776 36.1389C53.013 36.1389 52 34.2224 50.9455 33.5088L44.6396 39.6457L42.7788 37.7496L48.9814 31.5515C48.051 30.1855 46.3556 29.635 46.3556 28.0447C46.3556 27.0661 60.5388 14.1399 61.5933 12.57L58.6574 9.61366L60.5802 7.77871L64.9013 11.9583L69.5532 7.30977L67.9405 5.63793L69.8633 3.80298L79.0845 12.9777ZM68.9536 15.9137L66.9481 14.0175L71.5794 9.369L73.5849 11.2651L68.9536 15.9137Z" fill="#008FC3"/>
<path fill-rule="evenodd" clip-rule="evenodd" d="M43.7505 8.71651C43.7505 10.3476 45.5493 10.0825 46.521 10.0825C47.8649 10.0825 49.1881 10.0825 50.532 10.0825C50.3666 10.8165 46.9139 16.4845 46.521 17.2388C47.1206 17.5447 48.3198 18.401 48.9814 18.4621C49.3742 17.7282 54.3776 9.22621 54.3776 8.71651C54.3776 7.12621 52.4548 7.35049 51.4417 7.35049C49.9531 7.35049 48.4645 7.35049 46.9759 7.35049L49.0021 1.27476C48.7126 1.13204 46.7071 0.540777 46.3556 0.5C45.9628 2.2534 43.7505 7.69709 43.7505 8.71651Z" fill="#008FC3"/>
<path fill-rule="evenodd" clip-rule="evenodd" d="M10.7322 24.701C10.7322 25.7408 11.0424 26.3117 11.0424 27.2903C11.8487 27.2699 13.0479 26.8622 13.8128 26.6787C13.3373 25.6796 13.1099 22.968 15.0534 21.969C14.6812 21.2146 14.4951 20.1544 14.123 19.3796C13.1306 19.8893 12.531 20.1544 11.7453 21.2961C11.2491 21.9893 10.7322 23.5592 10.7322 24.701Z" fill="#008FC3"/>
</g>
<defs>
<clipPath id="clip0_19_208">
<rect width="79" height="63" fill="white" transform="translate(0.0844727 0.5)"/>
</clipPath>
</defs>
</svg>
