<svg width="20" height="21" viewBox="0 0 20 21" fill="none" xmlns="http://www.w3.org/2000/svg">
<path d="M12.72 7.13644L8.43001 11.4364L6.78 9.78644C6.69036 9.68175 6.58004 9.59673 6.45597 9.53671C6.33191 9.47669 6.19678 9.44296 6.05906 9.43764C5.92134 9.43232 5.78401 9.45552 5.65568 9.5058C5.52736 9.55607 5.41081 9.63233 5.31335 9.72978C5.2159 9.82724 5.13964 9.94379 5.08937 10.0721C5.03909 10.2004 5.01589 10.3378 5.02121 10.4755C5.02653 10.6132 5.06026 10.7483 5.12028 10.8724C5.1803 10.9965 5.26532 11.1068 5.37 11.1964L7.72 13.5564C7.81344 13.6491 7.92426 13.7224 8.0461 13.7722C8.16794 13.822 8.2984 13.8472 8.43001 13.8464C8.69234 13.8453 8.94374 13.7412 9.13 13.5564L14.13 8.55644C14.2237 8.46347 14.2981 8.35287 14.3489 8.23101C14.3997 8.10915 14.4258 7.97845 14.4258 7.84644C14.4258 7.71442 14.3997 7.58372 14.3489 7.46186C14.2981 7.34 14.2237 7.2294 14.13 7.13644C13.9426 6.95018 13.6892 6.84564 13.425 6.84564C13.1608 6.84564 12.9074 6.95018 12.72 7.13644ZM10 0.346436C8.02219 0.346436 6.08879 0.932925 4.4443 2.03174C2.79981 3.13055 1.51809 4.69234 0.761209 6.5196C0.00433284 8.34686 -0.193701 10.3575 0.192152 12.2973C0.578004 14.2371 1.53041 16.019 2.92894 17.4175C4.32746 18.816 6.10929 19.7684 8.0491 20.1543C9.98891 20.5401 11.9996 20.3421 13.8268 19.5852C15.6541 18.8284 17.2159 17.5466 18.3147 15.9021C19.4135 14.2576 20 12.3242 20 10.3464C20 9.03322 19.7413 7.73286 19.2388 6.5196C18.7363 5.30634 17.9997 4.20395 17.0711 3.27537C16.1425 2.34678 15.0401 1.61019 13.8268 1.10764C12.6136 0.605093 11.3132 0.346436 10 0.346436ZM10 18.3464C8.41775 18.3464 6.87104 17.8772 5.55544 16.9982C4.23985 16.1191 3.21447 14.8697 2.60897 13.4079C2.00347 11.9461 1.84504 10.3376 2.15372 8.78571C2.4624 7.23387 3.22433 5.8084 4.34315 4.68958C5.46197 3.57076 6.88743 2.80884 8.43928 2.50015C9.99113 2.19147 11.5997 2.3499 13.0615 2.9554C14.5233 3.5609 15.7727 4.58628 16.6518 5.90187C17.5308 7.21747 18 8.76418 18 10.3464C18 12.4682 17.1572 14.503 15.6569 16.0033C14.1566 17.5036 12.1217 18.3464 10 18.3464Z" fill="#008FC3"/>
</svg>
