<svg width="16" height="17" viewBox="0 0 16 17" fill="none" xmlns="http://www.w3.org/2000/svg">
<g clip-path="url(#clip0_2_44)">
<path d="M8.46667 15.7L8 16.0333L7.53333 15.6333C3.86667 12.4333 2 9.63332 2 7.16666C2 3.69999 4.73333 1.16666 8 1.16666C11.2667 1.16666 14 3.69999 14 7.16666C14 9.63332 12.1333 12.4333 8.46667 15.7ZM3.33333 7.16666C3.33333 9.03332 4.86667 11.4333 8 14.3C11.1333 11.5 12.6667 9.09999 12.6667 7.16666C12.6667 4.43332 10.5333 2.49999 8 2.49999C5.46667 2.49999 3.33333 4.43332 3.33333 7.16666ZM8 3.83332C9.86667 3.83332 11.3333 5.29999 11.3333 7.16666C11.3333 9.03332 9.86667 10.5 8 10.5C6.13333 10.5 4.66667 9.03332 4.66667 7.16666C4.66667 5.29999 6.13333 3.83332 8 3.83332ZM8 5.16666C6.86667 5.16666 6 6.03332 6 7.16666C6 8.29999 6.86667 9.16666 8 9.16666C9.13333 9.16666 10 8.29999 10 7.16666C10 6.03332 9.13333 5.16666 8 5.16666Z" fill="#008FC3"/>
</g>
<defs>
<clipPath id="clip0_2_44">
<rect width="16" height="16" fill="white" transform="translate(0 0.5)"/>
</clipPath>
</defs>
</svg>
