<svg width="10" height="17" viewBox="0 0 10 17" fill="none" xmlns="http://www.w3.org/2000/svg">
<g clip-path="url(#clip0_2_23)">
<path d="M6.67988 0.273032C4.38194 -0.560989 1.83043 0.592611 0.974646 2.85304C0.126786 5.12127 1.29953 7.63112 3.59747 8.46515C5.90333 9.29917 8.45484 8.14557 9.3027 5.88514C10.1506 3.61691 8.97782 1.10705 6.67988 0.273032ZM6.87797 4.99655C6.5214 5.9397 5.45959 6.42296 4.5008 6.07221C3.542 5.72924 3.05072 4.67698 3.40729 3.73383C3.76387 2.79068 4.82568 2.30742 5.78447 2.65818C6.74327 3.00893 7.23455 4.05341 6.87797 4.99655Z" fill="white"/>
<path d="M5.59432 11.84C5.13473 11.3645 4.35819 11.3489 3.87483 11.8088L0.681485 14.8331C0.198126 15.2852 0.182278 16.0491 0.64979 16.5245C1.10938 17 1.88592 17.0156 2.36928 16.5557L5.56263 13.5314C6.04599 13.0793 6.06183 12.3155 5.59432 11.84Z" fill="white"/>
<path d="M4.51663 11.801C4.03327 12.2531 4.01742 13.017 4.48493 13.4924L7.55942 16.6337C8.01901 17.1091 8.79555 17.1247 9.27891 16.6648C9.76227 16.2127 9.77812 15.4489 9.31061 14.9734L6.23612 11.8322C5.77653 11.3645 4.99999 11.3489 4.51663 11.801Z" fill="white"/>
<path d="M9.19176 9.06511C8.80349 8.9248 8.39144 8.98716 8.07449 9.19761C6.10935 10.1408 4.06498 10.3278 1.87797 9.05731C1.81458 9.01834 1.74327 8.98716 1.67195 8.95598C1.03011 8.72214 0.324883 9.04172 0.0871647 9.67308C-0.150553 10.3044 0.174328 10.9982 0.816166 11.232C3.48653 12.6272 6.25991 12.9546 9.23138 11.3333C9.54041 11.2086 9.8019 10.9592 9.92076 10.6318C10.1585 10.0005 9.8336 9.29894 9.19176 9.06511Z" fill="white"/>
</g>
<defs>
<clipPath id="clip0_2_23">
<rect width="10" height="17" fill="white"/>
</clipPath>
</defs>
</svg>
