<svg width="16" height="17" viewBox="0 0 16 17" fill="none" xmlns="http://www.w3.org/2000/svg">
<path d="M14.4733 14.0267L12 11.5733C12.9601 10.3763 13.425 8.85686 13.2992 7.32753C13.1734 5.7982 12.4664 4.37519 11.3237 3.35109C10.1809 2.327 8.6892 1.77967 7.15528 1.82164C5.62136 1.86362 4.16181 2.49171 3.07676 3.57676C1.99171 4.66181 1.36362 6.12136 1.32164 7.65528C1.27967 9.1892 1.827 10.6809 2.85109 11.8237C3.87519 12.9664 5.2982 13.6734 6.82753 13.7992C8.35686 13.925 9.87627 13.4601 11.0733 12.5L13.5267 14.9533C13.5886 15.0158 13.6624 15.0654 13.7436 15.0993C13.8249 15.1331 13.912 15.1505 14 15.1505C14.088 15.1505 14.1751 15.1331 14.2564 15.0993C14.3376 15.0654 14.4114 15.0158 14.4733 14.9533C14.5935 14.829 14.6607 14.6629 14.6607 14.49C14.6607 14.3171 14.5935 14.151 14.4733 14.0267ZM7.33333 12.5C6.41035 12.5 5.5081 12.2263 4.74067 11.7135C3.97324 11.2007 3.3751 10.4719 3.02189 9.61919C2.66868 8.76646 2.57627 7.82815 2.75633 6.92291C2.9364 6.01766 3.38085 5.18614 4.0335 4.5335C4.68614 3.88085 5.51766 3.4364 6.42291 3.25633C7.32815 3.07627 8.26646 3.16868 9.11919 3.52189C9.97191 3.8751 10.7007 4.47324 11.2135 5.24067C11.7263 6.0081 12 6.91035 12 7.83333C12 9.07101 11.5083 10.258 10.6332 11.1332C9.75799 12.0083 8.57101 12.5 7.33333 12.5Z" fill="#008FC3"/>
</svg>
