<svg width="14" height="11" viewBox="0 0 14 11" fill="none" xmlns="http://www.w3.org/2000/svg">
<g clip-path="url(#clip0_2_30)">
<path d="M12.5555 0.122405L1.00902 4.55789C1.00902 4.55789 0.461241 4.73953 0.504373 5.07747C0.547505 5.41542 0.991765 5.57171 0.991765 5.57171L3.89455 6.53062L3.89887 6.53485V6.53062L10.869 2.1923C10.869 2.1923 11.2701 1.95151 11.2572 2.1923C11.2572 2.1923 11.3305 2.23454 11.1149 2.43308C10.8992 2.63162 5.63709 7.26142 5.63709 7.26142L5.62846 7.35013L10.3644 10.907C11.1537 11.2449 11.4427 10.5395 11.4427 10.5395L13.5001 0.388534C13.5001 -0.287349 12.5512 0.122405 12.5555 0.122405Z" fill="white"/>
<path d="M7.43993 8.71045L5.56368 10.3875C5.56368 10.3875 5.41703 10.4973 5.25745 10.4297L5.61544 7.31644" fill="white"/>
</g>
<defs>
<clipPath id="clip0_2_30">
<rect width="13" height="11" fill="white" transform="translate(0.5)"/>
</clipPath>
</defs>
</svg>
