<svg width="16" height="9" viewBox="0 0 16 9" fill="none" xmlns="http://www.w3.org/2000/svg">
<g clip-path="url(#clip0_2_28)">
<path d="M0.153009 1.36133C0.0184615 1.01729 -0.153461 0.658605 0.25392 0.464623C1.0799 0.453643 1.90587 0.442663 2.73558 0.431683C3.09438 0.442663 3.25883 0.702525 3.44944 1.06487C4.00631 2.11529 4.58562 3.16206 5.28452 4.12465C5.5125 4.43941 5.89746 4.56019 6.20019 4.05877C6.23383 3.38166 6.26747 2.70456 6.30111 2.02745C6.18898 1.24055 5.90867 0.775725 5.41907 0.728145C5.13876 0.460963 5.34058 0.241362 5.96847 0.124241C6.96637 -0.0843802 7.83719 0.0107805 8.60337 0.105941C9.24995 0.146201 9.34338 0.574424 9.33217 1.06487C9.30975 1.96157 9.29106 2.86194 9.29106 3.75865C9.48167 4.66999 9.98996 4.30399 10.3263 3.90871C10.9281 3.07056 11.4513 2.25438 11.8886 1.33571C12.3408 0.391423 12.4642 0.460963 12.7818 0.457303C13.5405 0.453643 14.3777 0.417043 14.9832 0.439003C16.2464 0.365803 16.1007 0.914806 15.7456 1.49675C15.1327 2.51058 14.3441 3.42558 13.6414 4.39183C13.2154 4.95913 13.2229 5.31416 13.6751 5.6216C14.3441 6.34262 15.0691 7.01607 15.6784 7.78467C16.3399 8.62282 15.854 8.8534 15.2373 8.91562C14.5011 8.91562 13.7648 8.91562 13.0285 8.91562C12.4006 8.9266 11.8325 8.77288 11.4326 8.11773C10.5095 6.92091 9.82178 6.5915 9.54521 7.26495C9.42561 7.56141 9.3247 7.96035 9.32844 8.34832C9.33217 8.89 8.99954 8.93392 8.54731 8.94856C8.06144 8.94856 7.55689 9.06568 7.08597 8.94856C5.41907 8.53498 3.81944 7.77369 2.26093 5.15677C1.55829 4.02583 0.855649 2.78874 0.153009 1.36133Z" fill="white"/>
</g>
<defs>
<clipPath id="clip0_2_28">
<rect width="16" height="9" fill="white"/>
</clipPath>
</defs>
</svg>
